<?xml version="1.0" standalone="no"?>
<!DOCTYPE svg PUBLIC "-//W3C//DTD SVG 20010904//EN"
 "http://www.w3.org/TR/2001/REC-SVG-20010904/DTD/svg10.dtd">
<svg version="1.0" xmlns="http://www.w3.org/2000/svg"
 width="512.000000pt" height="512.000000pt" viewBox="0 0 512.000000 512.000000"
 preserveAspectRatio="xMidYMid meet">
<metadata>
Created by potrace 1.16, written by Peter Selinger 2001-2019
</metadata>
<g transform="translate(0.000000,512.000000) scale(0.100000,-0.100000)"
fill="#000000" stroke="none">
<path d="M2613 4999 c-76 -29 -154 -104 -188 -181 -77 -170 0 -376 168 -453
l58 -27 -3 -120 -3 -121 -95 -26 c-264 -74 -511 -202 -731 -379 -77 -62 -275
-261 -305 -306 l-16 -26 -380 0 -380 0 -29 -29 c-58 -59 -29 -159 52 -175 18
-3 157 -6 311 -6 154 0 278 -3 276 -7 -2 -5 -29 -58 -59 -119 -31 -61 -67
-141 -80 -178 l-24 -66 -553 0 c-474 0 -557 -2 -582 -15 -37 -19 -50 -43 -50
-95 0 -33 6 -48 29 -71 l29 -29 533 0 532 0 -7 -37 c-16 -93 -36 -252 -36
-295 l0 -48 -244 0 -243 0 -27 -26 c-37 -38 -37 -110 0 -148 l27 -26 243 0
c134 0 244 -3 244 -8 0 -45 40 -298 56 -354 5 -17 -16 -18 -336 -18 l-342 0
-29 -29 c-39 -39 -41 -106 -5 -148 l24 -28 380 -3 379 -3 42 -98 c111 -260
318 -536 539 -722 656 -549 1572 -635 2314 -218 121 69 148 95 148 147 0 52
-37 99 -85 108 -30 5 -50 -2 -142 -54 -294 -165 -544 -237 -863 -249 -183 -6
-335 11 -517 57 -718 186 -1250 793 -1343 1534 -19 152 -8 432 24 582 151 714
703 1267 1411 1412 394 81 793 30 1160 -148 555 -269 932 -803 1005 -1422 16
-134 8 -411 -15 -528 -45 -229 -122 -431 -239 -626 -45 -75 -49 -129 -10 -167
34 -34 73 -42 117 -23 29 12 47 34 96 116 111 189 199 426 244 660 19 100 22
149 22 370 0 241 -2 262 -28 385 -54 252 -155 504 -282 700 -264 410 -675 718
-1135 850 l-115 33 -3 125 -3 125 28 6 c38 9 124 69 150 104 50 67 67 115 71
202 3 70 0 95 -18 142 -28 74 -93 146 -167 183 l-58 30 -445 2 c-427 2 -447 2
-497 -18z m914 -209 c67 -40 84 -133 36 -191 -49 -58 -56 -59 -468 -59 -357 0
-378 1 -415 20 -46 23 -73 68 -73 122 0 45 23 82 66 108 30 19 53 20 427 20
374 0 397 -1 427 -20z m-187 -561 c0 -100 0 -100 -22 -93 -30 10 -406 10 -435
0 -23 -7 -23 -7 -23 93 l0 101 240 0 240 0 0 -101z"/>
<path d="M2927 3670 c-249 -31 -476 -113 -672 -240 -663 -433 -898 -1286 -550
-1995 158 -323 443 -596 766 -736 205 -89 401 -129 632 -129 353 0 665 106
947 320 99 76 251 235 325 339 282 402 356 918 199 1389 -115 349 -364 655
-686 847 -152 90 -333 157 -518 190 -102 19 -349 27 -443 15z m421 -225 c409
-79 770 -353 958 -728 150 -296 178 -662 78 -994 -34 -114 -131 -302 -208
-404 -488 -645 -1415 -725 -1997 -171 -302 287 -455 684 -419 1086 30 330 163
610 400 846 213 212 489 343 810 384 68 8 296 -3 378 -19z"/>
<path d="M3056 3285 c-49 -26 -55 -43 -56 -141 0 -84 2 -93 25 -117 31 -31 69
-39 115 -24 46 16 70 63 70 140 0 79 -20 124 -64 142 -44 19 -54 19 -90 0z"/>
<path d="M3755 2919 c-11 -6 -132 -123 -270 -260 l-250 -249 -49 15 c-62 19
-110 19 -172 0 l-49 -14 -120 118 c-131 130 -156 143 -218 117 -43 -17 -57
-41 -57 -97 0 -41 5 -47 121 -165 l121 -122 -12 -38 c-7 -21 -13 -68 -12 -105
0 -121 63 -222 174 -281 63 -33 213 -33 276 0 95 51 152 127 172 230 9 48 1
132 -16 175 -5 15 44 70 252 278 l259 259 0 46 c0 39 -5 50 -33 75 -34 31 -80
38 -117 18z m-583 -727 c42 -43 41 -100 -1 -143 -92 -91 -235 44 -148 140 45
48 103 50 149 3z"/>
<path d="M1978 2215 c-36 -20 -48 -44 -48 -95 0 -33 6 -48 29 -71 28 -28 34
-29 115 -29 81 0 88 2 118 29 28 25 33 36 33 75 0 36 -6 51 -28 73 -25 25 -35
28 -110 31 -59 2 -90 -2 -109 -13z"/>
<path d="M4033 2215 c-33 -14 -63 -59 -63 -95 0 -29 27 -77 49 -90 11 -5 59
-10 106 -10 82 0 88 1 116 29 58 59 29 159 -52 175 -51 10 -122 6 -156 -9z"/>
<path d="M3028 1221 c-33 -29 -33 -30 -33 -121 0 -91 0 -92 33 -121 45 -41
102 -41 143 0 28 28 29 33 29 121 0 88 -1 93 -29 121 -41 41 -98 41 -143 0z"/>
<path d="M54 1601 c-54 -23 -73 -115 -34 -164 38 -48 130 -44 165 7 23 32 19
100 -8 131 -24 29 -86 42 -123 26z"/>
<path d="M4388 841 c-28 -25 -33 -36 -33 -76 0 -40 5 -51 33 -76 37 -33 77
-37 122 -14 37 19 50 43 50 90 0 47 -13 71 -50 90 -45 23 -85 19 -122 -14z"/>
</g>
</svg>
