<?xml version="1.0" standalone="no"?>
<!DOCTYPE svg PUBLIC "-//W3C//DTD SVG 20010904//EN"
 "http://www.w3.org/TR/2001/REC-SVG-20010904/DTD/svg10.dtd">
<svg version="1.0" xmlns="http://www.w3.org/2000/svg"
 width="100.000000pt" height="100.000000pt" viewBox="0 0 100.000000 100.000000"
 preserveAspectRatio="xMidYMid meet">
<metadata>
Created by potrace 1.16, written by Peter Selinger 2001-2019
</metadata>
<g transform="translate(0.000000,100.000000) scale(0.100000,-0.100000)"
fill="#000000" stroke="none">
<path d="M321 816 l-126 -124 -81 -4 c-49 -2 -87 -8 -97 -17 -15 -11 -17 -37
-17 -171 0 -134 2 -160 17 -171 10 -9 48 -15 97 -17 l81 -4 126 -124 c114
-113 129 -124 162 -124 26 0 39 6 47 19 15 30 14 833 -2 849 -7 7 -28 12 -47
12 -31 0 -48 -13 -160 -124z m174 52 c9 -35 1 -745 -8 -754 -4 -5 -71 55 -148
132 l-139 140 0 114 0 113 137 139 c75 76 141 138 145 138 4 0 10 -10 13 -22z
m-335 -368 l0 -130 -55 0 -55 0 0 130 0 130 55 0 55 0 0 -130z"/>
<path d="M746 854 c-3 -9 -6 -17 -6 -18 0 -2 24 -19 54 -39 64 -42 95 -81 132
-162 69 -150 11 -337 -132 -432 -55 -36 -67 -59 -38 -70 41 -15 160 91 206
185 32 64 33 72 33 182 0 103 -3 121 -26 171 -31 65 -85 128 -145 170 -48 33
-69 36 -78 13z"/>
<path d="M677 753 c-15 -14 -5 -32 33 -57 22 -15 53 -49 70 -79 25 -43 30 -63
30 -117 0 -54 -5 -74 -30 -118 -17 -28 -46 -62 -65 -75 -36 -23 -49 -42 -39
-58 21 -35 122 44 160 126 18 38 24 67 24 125 0 58 -6 87 -24 125 -37 80 -132
156 -159 128z"/>
<path d="M597 633 c-14 -14 -6 -42 13 -48 35 -11 60 -46 60 -85 0 -39 -25 -74
-60 -85 -23 -7 -27 -43 -6 -51 8 -3 28 2 46 11 90 47 95 192 7 245 -34 21 -49
24 -60 13z"/>
</g>
</svg>
