<?xml version="1.0" standalone="no"?>
<!DOCTYPE svg PUBLIC "-//W3C//DTD SVG 20010904//EN"
 "http://www.w3.org/TR/2001/REC-SVG-20010904/DTD/svg10.dtd">
<svg version="1.0" xmlns="http://www.w3.org/2000/svg"
 width="512.000000pt" height="512.000000pt" viewBox="0 0 512.000000 512.000000"
 preserveAspectRatio="xMidYMid meet">
<metadata>
Created by potrace 1.16, written by Peter Selinger 2001-2019
</metadata>
<g transform="translate(0.000000,512.000000) scale(0.100000,-0.100000)"
fill="#000000" stroke="none">
<path d="M1535 5113 c-393 -53 -751 -228 -1025 -503 -253 -253 -417 -564 -487
-923 -17 -85 -18 -175 -18 -1132 0 -968 1 -1046 18 -1125 46 -216 103 -370
199 -541 265 -472 725 -789 1268 -873 93 -15 218 -16 1120 -13 l1015 3 111 26
c503 118 896 403 1151 836 95 161 164 346 210 562 17 79 18 160 18 1130 l0
1045 -24 110 c-49 232 -134 437 -260 626 -257 386 -640 645 -1111 750 l-105
24 -1025 1 c-564 1 -1038 -1 -1055 -3z m1925 -303 c366 -27 682 -172 938 -431
248 -252 386 -561 412 -924 12 -175 13 -1615 0 -1785 -21 -289 -107 -534 -265
-754 -255 -356 -644 -574 -1085 -606 -175 -13 -1624 -13 -1801 0 -363 26 -684
174 -937 431 -248 252 -386 562 -412 924 -13 183 -13 1609 0 1793 27 368 172
685 431 940 243 238 569 388 898 412 159 11 1666 11 1821 0z"/>
<path d="M1438 3895 c-59 -22 -126 -72 -163 -123 -69 -94 -66 -21 -63 -1227
l3 -1090 25 -50 c31 -64 101 -134 165 -165 l50 -25 355 0 355 0 50 25 c64 31
134 101 165 165 l25 50 0 1105 0 1105 -25 50 c-31 64 -101 134 -165 165 -50
25 -51 25 -395 27 -274 2 -353 -1 -382 -12z m654 -303 c19 -19 19 -2045 0
-2064 -19 -19 -545 -19 -564 0 -10 10 -14 207 -16 1005 -1 546 0 1007 3 1025
4 21 14 36 28 42 36 15 533 8 549 -8z"/>
<path d="M2938 3895 c-59 -22 -126 -72 -163 -123 -69 -94 -66 -21 -63 -1227
l3 -1090 25 -50 c31 -64 101 -134 165 -165 l50 -25 355 0 355 0 50 25 c64 31
134 101 165 165 l25 50 0 1105 0 1105 -25 50 c-31 64 -101 134 -165 165 -50
25 -51 25 -395 27 -274 2 -353 -1 -382 -12z m654 -303 c19 -19 19 -2045 0
-2064 -19 -19 -545 -19 -564 0 -10 10 -14 207 -16 1005 -1 546 0 1007 3 1025
4 21 14 36 28 42 36 15 533 8 549 -8z"/>
</g>
</svg>
